<svg width="22" height="18" viewBox="0 0 22 18" fill="none" xmlns="http://www.w3.org/2000/svg">
<path fill-rule="evenodd" clip-rule="evenodd" d="M7.8 1.80001C6.47451 1.80001 5.4 2.87452 5.4 4.20001C5.4 5.5255 6.47451 6.60001 7.8 6.60001C9.12549 6.60001 10.2 5.5255 10.2 4.20001C10.2 2.87452 9.12549 1.80001 7.8 1.80001ZM3.8 5.00001C3.82673 5.00001 3.85317 4.9987 3.87923 4.99614C4.24835 6.82385 5.86347 8.20001 7.8 8.20001C9.73653 8.20001 11.3516 6.82385 11.7208 4.99614C11.7468 4.9987 11.7733 5.00001 11.8 5.00001H20.6C21.0418 5.00001 21.4 4.64184 21.4 4.20001C21.4 3.75819 21.0418 3.40001 20.6 3.40001H11.8C11.7733 3.40001 11.7468 3.40132 11.7208 3.40388C11.3516 1.57616 9.73653 0.200012 7.8 0.200012C5.86347 0.200012 4.24835 1.57616 3.87923 3.40388C3.85317 3.40132 3.82673 3.40001 3.8 3.40001H1.4C0.958174 3.40001 0.599998 3.75819 0.599998 4.20001C0.599998 4.64184 0.958174 5.00001 1.4 5.00001H3.8ZM18.1208 14.5962C17.7517 16.4239 16.1365 17.8 14.2 17.8C12.2635 17.8 10.6483 16.4239 10.2792 14.5962C10.2532 14.5987 10.2267 14.6 10.2 14.6H1.4C0.958174 14.6 0.599998 14.2418 0.599998 13.8C0.599998 13.3583 0.958174 13 1.4 13H10.2C10.2267 13 10.2532 13.0013 10.2792 13.0039C10.6483 11.1762 12.2635 9.80001 14.2 9.80001C16.1365 9.80001 17.7517 11.1762 18.1208 13.0039C18.1469 13.0013 18.1733 13 18.2 13H20.6C21.0418 13 21.4 13.3583 21.4 13.8C21.4 14.2418 21.0418 14.6 20.6 14.6H18.2C18.1733 14.6 18.1469 14.5987 18.1208 14.5962ZM11.8 13.8C11.8 12.4745 12.8745 11.4 14.2 11.4C15.5254 11.4 16.6 12.4745 16.6 13.8C16.6 15.1255 15.5254 16.2 14.2 16.2C12.8745 16.2 11.8 15.1255 11.8 13.8Z" fill="black"/>
</svg>
