<svg width="21" height="21" viewBox="0 0 21 21" fill="none" xmlns="http://www.w3.org/2000/svg">
<path fill-rule="evenodd" clip-rule="evenodd" d="M1.93873 4.39992C1.93873 2.76443 3.26454 1.43863 4.90003 1.43863C6.5355 1.43863 7.86133 2.76443 7.86133 4.39992C7.86133 6.03539 6.5355 7.36122 4.90003 7.36122C3.26454 7.36122 1.93873 6.03539 1.93873 4.39992ZM4.90003 -0.00137329C2.46926 -0.00137329 0.498734 1.96915 0.498734 4.39992C0.498734 6.83069 2.46926 8.80122 4.90003 8.80122C7.3308 8.80122 9.30133 6.83069 9.30133 4.39992C9.30133 1.96915 7.3308 -0.00137329 4.90003 -0.00137329ZM7.81254 15.6001L2.49997 18.539V12.6613L7.81254 15.6001ZM2.72213 11.1385C1.97565 10.7256 1.05997 11.2655 1.05997 12.1186V19.0817C1.05997 19.9349 1.97565 20.4747 2.72213 20.0617L9.01576 16.5801C9.78622 16.1539 9.78622 15.0464 9.01576 14.6201L2.72213 11.1385ZM11.78 12.4C11.78 11.7815 12.2815 11.28 12.9 11.28H19.3C19.9186 11.28 20.42 11.7815 20.42 12.4V18.8C20.42 19.4185 19.9186 19.92 19.3 19.92H12.9C12.2815 19.92 11.78 19.4185 11.78 18.8V12.4ZM13.22 12.72V18.48H18.98V12.72H13.22ZM20.0091 1.50896C20.2902 1.22778 20.2902 0.771907 20.0091 0.490723C19.728 0.209555 19.2722 0.209555 18.9909 0.490723L16.1 3.38163L13.2091 0.490771C12.928 0.209587 12.4721 0.209587 12.1909 0.490771C11.9097 0.771939 11.9097 1.22783 12.1909 1.50899L15.0818 4.39986L12.1909 7.29072C11.9097 7.57191 11.9097 8.02778 12.1909 8.30896C12.4721 8.59015 12.928 8.59015 13.2091 8.30896L16.1 5.4181L18.9909 8.30901C19.2722 8.59018 19.728 8.59018 20.0091 8.30901C20.2902 8.02783 20.2902 7.57194 20.0091 7.29077L17.1182 4.39986L20.0091 1.50896Z" fill="#6C179A"/>
</svg>
