<svg width="23" height="23" viewBox="0 0 23 23" fill="none" xmlns="http://www.w3.org/2000/svg">
<path fill-rule="evenodd" clip-rule="evenodd" d="M10.9657 5.16569L12.2457 3.88566C13.277 2.85443 15.0857 2.13876 16.8832 1.88201C17.769 1.75548 18.6066 1.74761 19.2902 1.85C19.9979 1.95598 20.4317 2.16315 20.6344 2.36572C20.837 2.5683 21.0442 3.00201 21.1501 3.70972C21.2525 4.39339 21.2446 5.23104 21.1181 6.11683C20.8613 7.91424 20.1456 9.72302 19.1142 10.7543L12 17.8687L10.1657 16.0344C9.85324 15.7219 9.34671 15.7219 9.03429 16.0344C8.72188 16.3467 8.72188 16.8533 9.03429 17.1658L11.4343 19.5658C11.7467 19.8781 12.2533 19.8781 12.5657 19.5658L13.4412 18.6903L15.314 21.8115C15.4407 22.0229 15.6577 22.1639 15.9022 22.1941C16.1467 22.2242 16.3915 22.1399 16.5656 21.9658L19.7656 18.7658C19.9437 18.5877 20.0275 18.3362 19.992 18.0869L19.2485 12.8829L20.2458 11.8857C21.6144 10.5169 22.4187 8.32569 22.7019 6.3431C22.8454 5.33889 22.8626 4.34156 22.7325 3.47275C22.6059 2.62798 22.323 1.79172 21.7656 1.23433C21.2083 0.676956 20.372 0.394143 19.5272 0.267635C18.6584 0.137524 17.6611 0.154643 16.6568 0.298092C14.6743 0.581302 12.483 1.38561 11.1143 2.75428L10.1172 3.7515L4.91314 3.00808C4.66388 2.97246 4.41237 3.05628 4.23432 3.23435L1.03432 6.43433C0.86013 6.60854 0.775904 6.85328 0.806003 7.09777C0.836104 7.34227 0.977171 7.55928 1.18841 7.68603L4.30983 9.55886L3.43434 10.4343C3.28432 10.5844 3.20004 10.7879 3.20004 11C3.20004 11.2122 3.28432 11.4157 3.43434 11.5657L5.83436 13.9657C6.14677 14.2781 6.6533 14.2781 6.96571 13.9657C7.27815 13.6533 7.27815 13.1468 6.96571 12.8343L5.13139 11L6.16572 9.96571L10.9657 5.16569ZM16.1589 20.1098L14.6073 17.524L17.8342 14.2971L18.3515 17.9171L16.1589 20.1098ZM5.47602 8.39267L8.70296 5.16571L5.08285 4.64856L2.89021 6.8412L5.47602 8.39267ZM3.7657 15.5656C4.07811 15.2533 4.07811 14.7467 3.7657 14.4343C3.45328 14.1219 2.94674 14.1219 2.63432 14.4343L1.03432 16.0343C0.721904 16.3467 0.721904 16.8533 1.03432 17.1656C1.34674 17.4781 1.85328 17.4781 2.1657 17.1656L3.7657 15.5656ZM6.16573 17.9658C6.47815 17.6533 6.47816 17.1467 6.16575 16.8344C5.85333 16.5219 5.3468 16.5219 5.03437 16.8344L1.83432 20.0343C1.52191 20.3467 1.5219 20.8533 1.83432 21.1656C2.14674 21.4781 2.65327 21.4781 2.96568 21.1658L6.16573 17.9658ZM8.5657 20.3656C8.87811 20.0533 8.87811 19.5467 8.5657 19.2343C8.25328 18.9219 7.74674 18.9219 7.43432 19.2343L5.83432 20.8343C5.52191 21.1467 5.52191 21.6533 5.83432 21.9656C6.14674 22.2781 6.65328 22.2781 6.9657 21.9656L8.5657 20.3656ZM15.2 9.79811C16.3035 9.79811 17.1981 8.90353 17.1981 7.80001C17.1981 6.69649 16.3035 5.8019 15.2 5.8019C14.0964 5.8019 13.2018 6.69649 13.2018 7.80001C13.2018 8.90353 14.0964 9.79811 15.2 9.79811Z" fill="#080C19"/>
</svg>
