<svg width="23" height="22" viewBox="0 0 23 22" fill="none" xmlns="http://www.w3.org/2000/svg">
<path fill-rule="evenodd" clip-rule="evenodd" d="M2.46001 11.0007C2.46001 6.00761 6.50741 1.96002 11.5 1.96002C16.4926 1.96002 20.54 6.00761 20.54 11.0007C20.54 15.9938 16.4926 20.0414 11.5 20.0414C6.50741 20.0414 2.46001 15.9938 2.46001 11.0007ZM11.5 0.360016C5.62365 0.360016 0.860008 5.12405 0.860008 11.0007C0.860008 16.8773 5.62365 21.6414 11.5 21.6414C17.3763 21.6414 22.14 16.8773 22.14 11.0007C22.14 5.12405 17.3763 0.360016 11.5 0.360016ZM10.7 11.8V4.00498C10.9626 3.97527 11.2295 3.96002 11.5 3.96002C15.3881 3.96002 18.54 7.11223 18.54 11.0007C18.54 11.271 18.5248 11.5377 18.4952 11.8H10.7Z" fill="black"/>
</svg>
